# xmcd
#
# Track frame offsets:
#	150
#	4914
#	7347
#	9472
#	14311
#	16776
#	19098
#	23808
#	26242
#	28317
#	32987
#	35439
#	37701
#	42623
#	45238
#	47740
#	52575
#	55052
#	57299
#	62058
#	64505
#	66934
#	71570
#	73987
#	76344
#	80983
#	83396
#	85486
#	90190
#	92612
#	94747
#	99794
#	102511
#	105436
#	110410
#	113252
#	115844
#	120563
#	123057
#	124480
#	125343
#	130080
#	132547
#	133843
#	134684
#	139451
#	142006
#	143415
#	144306
#	149068
#	151530
#	152904
#	153825
#	158532
#	160994
#	162288
#	163249
#	167921
#	170368
#	171647
#	172581
#	177305
#	179742
#	181153
#	181986
#	186668
#	189182
#	190308
#	195060
#	197520
#	198736
#	203473
#	205960
#	207127
#	211857
#	214262
#	215368
#	220085
#	222559
#	223898
#	228542
#	231036
#	232257
#	236992
#	239484
#	240840
#	241605
#	246241
#	248778
#	250079
#	254736
#	257246
#	258609
#	263245
#	265690
#
# Disc length: 3553 seconds
#
# Revision: 1
# Processed by: cddbd v1.5.2PL0 Copyright (c) Steve Scherf et al.
# Submitted via: audiograbber 1.83.01
#
DISCID=5b0ddf5f
DTITLE=Mix XIII Broadcast Music Library - Mix 114
DYEAR=2009
DGENRE=Country
TTITLE0=The Ones You Love
TTITLE1=The Ones You Love
TTITLE2=The Ones You Love
TTITLE3=Key to My Heart
TTITLE4=Key to My Heart
TTITLE5=Key to My Heart
TTITLE6=Back Forty Dreaming
TTITLE7=Back Forty Dreaming
TTITLE8=Back Forty Dreaming
TTITLE9=Always Thinking of You
TTITLE10=Always Thinking of You
TTITLE11=Always Thinking of You
TTITLE12=Won't Be Staying Long
TTITLE13=Won't Be Staying Long
TTITLE14=Won't Be Staying Long
TTITLE15=Heaven Sent
TTITLE16=Heaven Sent
TTITLE17=Heaven Sent
TTITLE18=Waiting for Better Times
TTITLE19=Waiting for Better Times
TTITLE20=Waiting for Better Times
TTITLE21=Wander the Backroads
TTITLE22=Wander the Backroads
TTITLE23=Wander the Backroads
TTITLE24=Becky Sue
TTITLE25=Becky Sue
TTITLE26=Becky Sue
TTITLE27=Beer and Bourbon
TTITLE28=Beer and Bourbon
TTITLE29=Beer and Bourbon
TTITLE30=Hate to Say Goodbye
TTITLE31=Hate to Say Goodbye
TTITLE32=Hate to Say Goodbye
TTITLE33=Lost Without You
TTITLE34=Lost Without You
TTITLE35=Lost Without You
TTITLE36=Smoky Mountain Fling
TTITLE37=Smoky Mountain Fling
TTITLE38=Smoky Mountain Fling
TTITLE39=Smoky Mountain Fling
TTITLE40=Freight Train Breakdown
TTITLE41=Freight Train Breakdown
TTITLE42=Freight Train Breakdown
TTITLE43=Freight Train Breakdown
TTITLE44=Traveling Music
TTITLE45=Traveling Music
TTITLE46=Traveling Music
TTITLE47=Traveling Music
TTITLE48=Woven Notes
TTITLE49=Woven Notes
TTITLE50=Woven Notes
TTITLE51=Woven Notes
TTITLE52=Farewell to Grace
TTITLE53=Farewell to Grace
TTITLE54=Farewell to Grace
TTITLE55=Farewell to Grace
TTITLE56=Long Winding Road
TTITLE57=Long Winding Road
TTITLE58=Long Winding Road
TTITLE59=Long Winding Road
TTITLE60=Sweet Corn Relish
TTITLE61=Sweet Corn Relish
TTITLE62=Sweet Corn Relish
TTITLE63=Sweet Corn Relish
TTITLE64=Never Forgotten
TTITLE65=Never Forgotten
TTITLE66=Never Forgotten
TTITLE67=Swing into Country
TTITLE68=Swing into Country
TTITLE69=Swing into Country
TTITLE70=Two Timin'
TTITLE71=Two Timin'
TTITLE72=Two Timin'
TTITLE73=Friday Nite Dancin' Boots
TTITLE74=Friday Nite Dancin' Boots
TTITLE75=Friday Nite Dancin' Boots
TTITLE76=Don't Wait Up
TTITLE77=Don't Wait Up
TTITLE78=Don't Wait Up
TTITLE79=May I Have This Dance?
TTITLE80=May I Have This Dance?
TTITLE81=May I Have This Dance?
TTITLE82=Dusty Road
TTITLE83=Dusty Road
TTITLE84=Dusty Road
TTITLE85=Dusty Road
TTITLE86=Plain and Simple
TTITLE87=Plain and Simple
TTITLE88=Plain and Simple
TTITLE89=Trouble Down the Road
TTITLE90=Trouble Down the Road
TTITLE91=Trouble Down the Road
TTITLE92=Railway Tie Bluegrass
TTITLE93=Railway Tie Bluegrass
TTITLE94=Railway Tie Bluegrass
EXTD=
EXTT0=
EXTT1=
EXTT2=
EXTT3=
EXTT4=
EXTT5=
EXTT6=
EXTT7=
EXTT8=
EXTT9=
EXTT10=
EXTT11=
EXTT12=
EXTT13=
EXTT14=
EXTT15=
EXTT16=
EXTT17=
EXTT18=
EXTT19=
EXTT20=
EXTT21=
EXTT22=
EXTT23=
EXTT24=
EXTT25=
EXTT26=
EXTT27=
EXTT28=
EXTT29=
EXTT30=
EXTT31=
EXTT32=
EXTT33=
EXTT34=
EXTT35=
EXTT36=
EXTT37=
EXTT38=
EXTT39=
EXTT40=
EXTT41=
EXTT42=
EXTT43=
EXTT44=
EXTT45=
EXTT46=
EXTT47=
EXTT48=
EXTT49=
EXTT50=
EXTT51=
EXTT52=
EXTT53=
EXTT54=
EXTT55=
EXTT56=
EXTT57=
EXTT58=
EXTT59=
EXTT60=
EXTT61=
EXTT62=
EXTT63=
EXTT64=
EXTT65=
EXTT66=
EXTT67=
EXTT68=
EXTT69=
EXTT70=
EXTT71=
EXTT72=
EXTT73=
EXTT74=
EXTT75=
EXTT76=
EXTT77=
EXTT78=
EXTT79=
EXTT80=
EXTT81=
EXTT82=
EXTT83=
EXTT84=
EXTT85=
EXTT86=
EXTT87=
EXTT88=
EXTT89=
EXTT90=
EXTT91=
EXTT92=
EXTT93=
EXTT94=
PLAYORDER=
